<?xml version="1.0" encoding="utf-8"?>
<!-- Generator: Adobe Illustrator 16.0.0, SVG Export Plug-In . SVG Version: 6.00 Build 0)  -->
<!DOCTYPE svg PUBLIC "-//W3C//DTD SVG 1.1 Tiny//EN" "http://www.w3.org/Graphics/SVG/1.1/DTD/svg11-tiny.dtd">
<svg version="1.1" baseProfile="tiny" id="Layer_1" xmlns="http://www.w3.org/2000/svg" xmlns:xlink="http://www.w3.org/1999/xlink"
	 x="0px" y="0px" width="512px" height="256px" viewBox="0 0 512 256" xml:space="preserve">
<g>
	<path fill="#FFFFFF" d="M91.581,34.303c44.775-25.919,81.889-0.587,66.571,53.612c-5.892,23.563-17.673,42.417-22.386,65.982
		c-2.357,11.783-2.357,50.665-11.782,57.731c-21.209,14.141-23.565-28.277-27.099-40.059c-2.357-5.89-4.715-27.102-14.139-23.564
		c-7.07,2.355-8.249,24.745-10.605,30.636c-7.069,22.387-18.852,49.484-31.813,20.028c-8.246-20.028-3.534-51.845-11.783-73.05
		c-9.425-25.925-27.098-57.736-9.425-82.48c9.425-12.96,27.101-25.921,43.595-20.029c8.248,2.354,35.347,15.906,34.17,17.085"/>
	<rect x="52.11" y="151.931" fill="#709ED3" stroke="#D6D6D6" width="448.912" height="11.785"/>
	<g>
		<path fill="#FFFFFF" d="M64.989,151.727c-4.134-0.347-7.794-0.629-11.328-0.629c-2.175-15.213-2.956-12.934-5.791-41.294
			c0,0,19.431-5.146,28.112-1.243c1.688,3.714,2.567,6.497,3.379,9.625c1.425-4.126,0.848-6.308,2.193-8.95
			c14.185-2.025,18.744-2.195,26.173,1.184c2.701-3.715,9.119-4.728,9.119-4.728s15.777-1.174,24.027,4.717
			c0-2.357,0.079-0.605,0.079-2.96c4.712-1.179,11.781-2.359,16.495-1.179c0,15.317,0,30.631-4.714,44.772
			c-13.445,1.11-16.333,1.019-26.939-0.157c-5.891-1.179-12.416-0.523-19.485-0.523c-14.14,1.181-17.587,0.056-32.649,1.578
			L64.989,151.727z"/>
		<g>
			<path fill="#D6D6D6" d="M65.373,151.207c-3.266-0.27-6.528-0.512-9.805-0.612c-1.647-0.051-1.591-4.079-1.779-5.233
				c-0.433-2.66-0.936-5.31-1.413-7.962c-1.659-9.215-2.601-18.545-3.539-27.854c-0.282,0.236-0.563,0.473-0.845,0.709
				c4.031-1.053,8.158-1.753,12.292-2.249c3.741-0.449,7.532-0.56,11.269-0.032c4.974,0.702,5.724,6.29,6.844,10.471
				c0.176,0.659,1.782,0.101,1.929-0.389c0.78-2.586,1.006-5.247,1.723-7.838c0.433-1.564,7.646-1.547,9.078-1.687
				c5.61-0.548,10.665,0.065,15.829,2.34c0.516,0.228,1.316-0.035,1.668-0.447c6.815-7.969,24.023-4.478,31.352,0.354
				c0.486,0.321,1.857,0.1,1.865-0.628c0.011-0.99,0.068-1.97,0.079-2.96c-0.282,0.236-0.563,0.473-0.845,0.709
				c3.872-0.924,7.717-1.54,11.704-1.597c5.286-0.075,3.706,5.563,3.667,9.407c-0.079,7.814-0.508,15.607-1.72,23.334
				c-0.553,3.53-1.411,6.999-2.411,10.427c-0.702,2.404-7.853,1.682-9.799,1.767c-5.404,0.235-10.756-0.265-16.122-0.853
				C106.174,148.167,85.657,151.705,65.373,151.207c-0.69-0.017-2.071,1.007-0.767,1.039c12.567,0.309,25.304-0.339,37.859-1.106
				c9.948-0.608,19.36,0.044,29.241,0.9c6.978,0.604,13.925,0.071,20.886-0.495c0.364-0.029,0.979-0.239,1.104-0.633
				c4.643-14.545,4.714-29.783,4.717-44.901c0-0.153-0.268-0.223-0.368-0.243c-5.731-1.133-11.603-0.109-17.213,1.23
				c-0.345,0.082-0.841,0.301-0.845,0.709c-0.011,0.99-0.068,1.97-0.079,2.96c0.622-0.209,1.243-0.419,1.865-0.628
				c-8.581-5.659-27.177-8.702-34.94,0.376c0.556-0.149,1.112-0.298,1.668-0.447c-5.628-2.479-11.003-2.941-17.094-2.445
				c-2.896,0.235-7.938-0.009-10.444,1.453c-1.897,1.108-1.985,7.418-2.564,9.338c0.643-0.129,1.286-0.259,1.929-0.389
				c-0.947-3.538-1.537-9.244-5.378-10.463c-3.337-1.059-7.088-0.958-10.537-0.793c-5.587,0.267-11.25,1.269-16.663,2.683
				c-0.307,0.08-0.886,0.304-0.845,0.709c1.401,13.899,3.794,27.496,5.791,41.294c0.033,0.229,0.421,0.259,0.583,0.261
				c3.788,0.041,7.554,0.317,11.328,0.629C65.305,152.304,66.673,151.314,65.373,151.207z"/>
		</g>
	</g>
	<g>
		<path fill="#FFFFFF" d="M74.104,131.119c-1.178,7.068,0,14.137,1.177,21.21"/>
		<g>
			<path fill="#D6D6D6" d="M73.622,131.182c-1.017,7.176,0,14.182,1.176,21.277c0.053,0.319,1.023,0.09,0.966-0.26
				c-1.167-7.04-2.188-14.01-1.177-21.143C74.64,130.686,73.667,130.862,73.622,131.182L73.622,131.182z"/>
		</g>
	</g>
	<g>
		<path fill="#FFFFFF" d="M60.451,142.96c-0.431,2.889-0.408,6.832,1.832,9.3"/>
		<g>
			<path fill="#D6D6D6" d="M59.969,143.025c-0.449,3.259-0.338,6.782,1.863,9.418c0.2,0.239,1.125-0.098,0.899-0.367
				c-2.143-2.565-2.236-6.016-1.8-9.182C60.981,142.539,60.011,142.721,59.969,143.025L59.969,143.025z"/>
		</g>
	</g>
	<g>
		<path fill="#FFFFFF" d="M89.088,134.324c3.28,4.451,2.355,12.961,3.534,17.676"/>
		<g>
			<path fill="#D6D6D6" d="M88.64,134.514c3.418,5.167,2.225,11.829,3.5,17.616c0.075,0.338,1.043,0.092,0.966-0.26
				c-1.29-5.854-0.11-12.508-3.569-17.735C89.356,133.863,88.418,134.181,88.64,134.514L88.64,134.514z"/>
		</g>
	</g>
	<g>
		<path fill="#FFFFFF" d="M105.133,122.478c-2.435,19.478,1.256,24.9,2.357,27.1"/>
		<g>
			<path fill="#D6D6D6" d="M104.649,122.535c-1.061,9.024-1.916,18.828,2.358,27.172c0.176,0.343,1.116,0.033,0.966-0.26
				c-4.26-8.315-3.415-18.021-2.356-27.027C105.664,122.017,104.689,122.193,104.649,122.535L104.649,122.535z"/>
		</g>
	</g>
	<g>
		<path fill="#FFFFFF" d="M120.716,124.694c0,7.8-0.094,19.249,4.447,26.061"/>
		<g>
			<path fill="#D6D6D6" d="M120.226,124.728c0,8.781-0.236,18.49,4.496,26.243c0.236,0.388,1.153,0.012,0.883-0.432
				c-4.667-7.647-4.398-17.223-4.398-25.878C121.206,124.14,120.226,124.276,120.226,124.728L120.226,124.728z"/>
		</g>
	</g>
	<g>
		<path fill="#FFFFFF" d="M129.876,133.082c3.534,5.893,4.712,12.961,4.712,18.849"/>
		<g>
			<path fill="#D6D6D6" d="M129.393,133.211c3.296,5.802,4.629,12.22,4.712,18.85c0.002,0.206,0.97,0.048,0.966-0.26
				c-0.083-6.629-1.416-13.047-4.712-18.848C130.207,132.685,129.292,133.033,129.393,133.211L129.393,133.211z"/>
		</g>
	</g>
	<text transform="matrix(1 0 0 1 36.6279 97.4189)" fill="#1C437D" font-family="'ColonnaMT'" font-size="70.6951">b</text>
	<text transform="matrix(1 0 0 1 70.9331 97.4189)" fill="#1C437D" font-family="'ColonnaMT'" font-size="70.6951">d</text>
	<text transform="matrix(1 0 0 1 107.4473 97.4189)" fill="#1C437D" font-family="'ColonnaMT'" font-size="70.6951">b</text>
	<text transform="matrix(1 0 0 1 165.6553 142.8506)" fill="#FFFFFF" font-family="'ColonnaMT'" font-size="63.1906">b</text>
	<text transform="matrix(1 0 0 1 197.8984 142.8506)" fill="#FFFFFF" font-family="'ColonnaMT'" font-size="52.6588">e</text>
	<text transform="matrix(1 0 0 1 222.5825 142.8506)" fill="#FFFFFF" font-family="'ColonnaMT'" font-size="52.6588">r</text>
	<text transform="matrix(1 0 0 1 242.1235 142.8506)" fill="#FFFFFF" font-family="'ColonnaMT'" font-size="52.6588">t</text>
	<text transform="matrix(1 0 0 1 261.3311 142.8506)" fill="#FFFFFF" font-family="'ColonnaMT'" font-size="52.6588">h</text>
	<text transform="matrix(1 0 0 1 289.9482 142.8506)" fill="#FFFFFF" font-family="'ColonnaMT'" font-size="52.6588">a</text>
	<text transform="matrix(1 0 0 1 312.4473 142.8506)" fill="#FFFFFF" font-family="'ColonnaMT'" font-size="56.4555"> </text>
	<text transform="matrix(1 0 0 1 326.2578 142.8506)" fill="#FFFFFF" font-family="'ColonnaMT'" font-size="63.1906">d</text>
	<text transform="matrix(1 0 0 1 360.4756 142.8506)" fill="#FFFFFF" font-family="'ColonnaMT'" font-size="56.4555"> </text>
	<text transform="matrix(1 0 0 1 374.2861 142.8506)" fill="#FFFFFF" font-family="'ColonnaMT'" font-size="63.1906">b</text>
	<text transform="matrix(1 0 0 1 406.5293 142.8506)" fill="#FFFFFF" font-family="'ColonnaMT'" font-size="52.6588">r</text>
	<text transform="matrix(1 0 0 1 426.6875 142.8506)" fill="#FFFFFF" font-family="'ColonnaMT'" font-size="52.6588">a</text>
	<text transform="matrix(1 0 0 1 447.875 142.8506)" fill="#FFFFFF" font-family="'ColonnaMT'" font-size="52.6588">v</text>
	<text transform="matrix(1 0 0 1 473.998 142.8506)" fill="#FFFFFF" font-family="'ColonnaMT'" font-size="52.6588">o</text>
	<text transform="matrix(1 0 0 1 392.7686 203.9932)" fill="#FFFFFF" font-family="'ColonnaMT'" font-size="61.2691">DDS</text>
</g>
</svg>
