<?xml version="1.0" encoding="utf-8"?>
<!-- Generator: Adobe Illustrator 16.0.0, SVG Export Plug-In . SVG Version: 6.00 Build 0)  -->
<!DOCTYPE svg PUBLIC "-//W3C//DTD SVG 1.1 Tiny//EN" "http://www.w3.org/Graphics/SVG/1.1/DTD/svg11-tiny.dtd">
<svg version="1.1" baseProfile="tiny" id="Layer_1" xmlns="http://www.w3.org/2000/svg" xmlns:xlink="http://www.w3.org/1999/xlink"
	 x="0px" y="0px" width="306px" height="344.35px" viewBox="0 0 306 344.35" xml:space="preserve">
<path fill="#004332" d="M302.107,258.263c2.4-4.16,3.893-8.846,3.893-13.054V99.14c0-4.208-1.49-8.893-3.893-13.052L153,172.175
	L302.107,258.263z"/>
<path fill="#007642" d="M166.25,341.193l126.5-73.034c3.645-2.104,6.956-5.737,9.357-9.896L153,172.175L3.893,258.263
	c2.401,4.159,5.714,7.793,9.357,9.896l126.5,73.034C147.037,345.401,158.963,345.401,166.25,341.193z"/>
<path fill="#65CC82" d="M302.107,86.087c-2.401-4.16-5.715-7.793-9.357-9.897L166.25,3.156c-7.287-4.208-19.213-4.208-26.5,0
	L13.25,76.19C5.962,80.397,0,90.725,0,99.14v146.069c0,4.208,1.491,8.894,3.893,13.054L153,172.175L302.107,86.087z"/>
<g>
	<path fill="#FFFFFF" d="M153,274.175c-56.243,0-102-45.757-102-102c0-56.243,45.757-102,102-102
		c36.292,0,70.139,19.53,88.331,50.968l-44.144,25.544c-9.104-15.736-26.037-25.512-44.188-25.512c-28.122,0-51,22.878-51,51
		c0,28.121,22.878,51,51,51c18.152,0,35.085-9.775,44.191-25.515l44.143,25.543C223.143,254.644,189.294,274.175,153,274.175z"/>
</g>
<g>
	<path fill="#FFFFFF" d="M201.135,169.808c0-4.207,1.172-7.482,3.516-9.826s5.607-3.516,9.791-3.516
		c4.289,0,7.594,1.151,9.914,3.454s3.48,5.528,3.48,9.677c0,3.012-0.507,5.481-1.521,7.409s-2.479,3.428-4.395,4.5
		s-4.304,1.608-7.163,1.608c-2.906,0-5.312-0.463-7.216-1.389s-3.448-2.391-4.632-4.395S201.135,172.819,201.135,169.808z
		 M209.098,169.843c0,2.602,0.483,4.471,1.45,5.607s2.282,1.705,3.946,1.705c1.711,0,3.035-0.557,3.973-1.67
		s1.406-3.111,1.406-5.994c0-2.426-0.489-4.198-1.468-5.317s-2.306-1.679-3.981-1.679c-1.605,0-2.895,0.568-3.867,1.705
		S209.098,167.218,209.098,169.843z"/>
	<path fill="#FFFFFF" d="M232.143,156.905h14.906c2.484,0,4.392,0.615,5.722,1.846s1.995,2.754,1.995,4.57
		c0,1.523-0.475,2.83-1.424,3.92c-0.633,0.727-1.559,1.301-2.777,1.723c1.852,0.445,3.214,1.21,4.087,2.294s1.31,2.446,1.31,4.087
		c0,1.336-0.311,2.537-0.932,3.604s-1.471,1.91-2.549,2.531c-0.668,0.387-1.676,0.668-3.023,0.844
		c-1.793,0.234-2.982,0.352-3.568,0.352h-13.746V156.905z M240.176,167.013h3.463c1.242,0,2.106-0.214,2.593-0.642
		s0.729-1.046,0.729-1.854c0-0.75-0.243-1.336-0.729-1.758s-1.333-0.633-2.54-0.633h-3.516V167.013z M240.176,177.138h4.061
		c1.371,0,2.338-0.243,2.9-0.729s0.844-1.14,0.844-1.96c0-0.762-0.278-1.374-0.835-1.837s-1.532-0.694-2.927-0.694h-4.043V177.138z"
		/>
	<path fill="#FFFFFF" d="M270.85,156.905h7.98v14c0,2.939-0.261,5.176-0.782,6.71s-1.57,2.834-3.146,3.899s-3.595,1.599-6.056,1.599
		c-2.602,0-4.617-0.352-6.047-1.055s-2.534-1.731-3.313-3.085s-1.239-3.026-1.38-5.019l7.611-1.037
		c0.012,1.137,0.111,1.98,0.299,2.531s0.504,0.996,0.949,1.336c0.305,0.223,0.738,0.334,1.301,0.334c0.891,0,1.544-0.33,1.96-0.992
		s0.624-1.777,0.624-3.346V156.905z"/>
</g>
</svg>
