<?xml version="1.0" encoding="utf-8"?>
<!-- Generator: Adobe Illustrator 16.0.0, SVG Export Plug-In . SVG Version: 6.00 Build 0)  -->
<!DOCTYPE svg PUBLIC "-//W3C//DTD SVG 1.1//EN" "http://www.w3.org/Graphics/SVG/1.1/DTD/svg11.dtd">
<svg version="1.1" id="Layer_1" xmlns="http://www.w3.org/2000/svg" xmlns:xlink="http://www.w3.org/1999/xlink" x="0px" y="0px"
	 width="250.305px" height="99.188px" viewBox="0 0 250.305 99.188" enable-background="new 0 0 250.305 99.188"
	 xml:space="preserve">
<path fill="none" stroke="#000000" stroke-miterlimit="10" d="M69.166,97.664l75-80.249c0,0,14.863-15.389,34.025-15.635
	c47.85-0.614,70.975,4.075,70.975,45.511c0,47.261-11.986,50.875-70,50.938c-23.906,0.025-50.609-31.138-50.609-31.138
	l-27.391,30.573H69.166z"/>
<path fill="none" stroke="#000000" stroke-miterlimit="10" d="M88.166,77.666l-19,20c0,0-4.295,0.155-16,0
	s-52.25,1.957-52.25-46.393c0-43.917,25.375-50.111,65.916-50.109c33.623,0.001,51.415,28.034,51.415,28.034l-11.448,15.256
	c0,0-19.536-21.483-39.89-21.837c-25.971-0.452-39.384,3.692-38.878,26.789c0.438,19.98,15.741,28.096,33.741,28.096
	S88.166,77.666,88.166,77.666z"/>
<path fill="none" stroke="#000000" stroke-miterlimit="10" d="M192.153,22.447c28.125,0.29,32.127,6.933,32.127,26.798
	c-0.002,24.371-9.602,30.542-36.965,29.442c-21.404-0.861-43.989-26.9-43.989-26.9S164.935,22.166,192.153,22.447z"/>
<polygon points="113.029,51.122 95.209,34.302 110.302,19.21 127.122,36.03 "/>
<g>
	<path fill="#F7F5F5" d="M113.73,34.926c-0.906-0.72-1.266-0.665-2.244-0.452c-0.737,0.179-1.517,0.389-2.577,0.622
		c0.014,0.919-0.083,3.239-0.38,4.2l-0.217,0.06c-0.494-0.614-0.861-1.522-0.866-1.821c0.033-0.311,0.085-1.399,0.112-2.146
		c-2.034,0.328-3.264-0.071-4.128-0.909c-1.507-1.464-1.249-3.42-0.233-4.466c1.078-1.11,2.3-0.829,4.087-0.601
		c-0.064-1.018,0.085-1.828,0.71-2.472c1.035-1.065,2.671-0.971,3.73,0.058c0.933,0.906,1.072,2.353,0.128,3.311
		c-0.478,0.492-1.048,0.588-1.502,0.562c-0.416-0.023-0.896-0.048-1.643-0.162c0.067,0.727,0.208,2.271,0.204,3.752
		c0.713-0.153,1.3-0.38,2.09-0.727c0.748-0.328,0.706-0.588-0.035-1.492l0.361-0.371l2.762,2.682L113.73,34.926z M104.474,33.949
		c0.838,0.814,2.127,0.963,3.101,0.781c0.076-1.176,0.023-2.66-0.249-4.701c-1.427-0.246-2.3-0.004-2.888,0.602
		c-1.09,1.121-0.765,2.541,0.023,3.306L104.474,33.949z M111.17,27.281c-0.574-0.557-1.462-0.488-2.166,0.237
		c-0.569,0.587-0.607,1.382-0.385,2.604c1.034,0.134,1.79-0.038,2.372-0.612c0.63-0.674,0.765-1.658,0.191-2.216L111.17,27.281z"/>
	<path fill="#F7F5F5" d="M120.317,41.324c-0.906-0.72-1.266-0.664-2.244-0.451c-0.737,0.178-1.517,0.389-2.577,0.621
		c0.014,0.92-0.083,3.24-0.38,4.201l-0.217,0.059c-0.494-0.613-0.861-1.521-0.866-1.82c0.033-0.311,0.085-1.4,0.112-2.146
		c-2.034,0.328-3.264-0.07-4.128-0.909c-1.507-1.464-1.249-3.419-0.233-4.466c1.078-1.109,2.3-0.828,4.087-0.6
		c-0.064-1.02,0.085-1.829,0.71-2.473c1.035-1.064,2.671-0.971,3.73,0.059c0.933,0.906,1.072,2.352,0.128,3.311
		c-0.478,0.492-1.048,0.587-1.502,0.562c-0.416-0.024-0.896-0.049-1.643-0.162c0.067,0.727,0.208,2.271,0.204,3.752
		c0.713-0.154,1.3-0.381,2.09-0.728c0.748-0.327,0.706-0.588-0.035-1.491l0.361-0.372l2.762,2.683L120.317,41.324z M111.061,40.346
		c0.838,0.814,2.127,0.964,3.101,0.782c0.076-1.176,0.023-2.66-0.249-4.702c-1.427-0.246-2.3-0.004-2.888,0.602
		c-1.09,1.122-0.765,2.541,0.023,3.306L111.061,40.346z M117.757,33.679c-0.574-0.557-1.462-0.488-2.166,0.236
		c-0.569,0.587-0.607,1.383-0.385,2.604c1.034,0.135,1.79-0.037,2.372-0.611c0.63-0.675,0.765-1.659,0.191-2.217L117.757,33.679z"/>
</g>
</svg>
