<?xml version="1.0" encoding="UTF-8" standalone="no"?>
<svg
   xmlns:dc="http://purl.org/dc/elements/1.1/"
   xmlns:cc="http://creativecommons.org/ns#"
   xmlns:rdf="http://www.w3.org/1999/02/22-rdf-syntax-ns#"
   xmlns:svg="http://www.w3.org/2000/svg"
   xmlns="http://www.w3.org/2000/svg"
   xml:space="preserve"
   enable-background="new 0 0 262.667 124.667"
   viewBox="0 0 249.25001 98.065018"
   height="98.065018"
   width="249.25"
   y="0px"
   x="0px"
   id="Layer_2"
   version="1.1">
    <defs
     id="defs3353">
        
        <style type="text/css">
            
            
                .st0{
                    stroke-dasharray: 1000;
                    stroke-dashoffset: 1000;
                    animation: dash 3s linear forwards;
<!--                    animation: pulse 20s linear forwards; -->
                }
            

                @keyframes dash {
                    from{
                     stroke-dashoffset: 1000;
                        fill:#333;
                    }
                    to {
                    stroke-dashoffset: 0;
                fill: white;
                    }
           
            
<!--
                @keyframes pulse {
                    0% {
                     fill: black;
                    }
                    100% {
                     fill: white;
                    }
-->
                }
            
        </style>
    </defs>
    
    <path
     style="fill:none;stroke:#000000;stroke-miterlimit:10"
     id="st0"
     d="m 68.75,97.002 75,-80.25 c 0,0 14.862,-15.3899995 34.025,-15.6359995 47.849,-0.61400001 70.975,4.074 70.975,45.5109995 0,47.261 -11.987,50.875 -70,50.938 -23.906,0.025 -50.61,-31.137 -50.61,-31.137 l -27.39,30.574 -32,0 z"
     stroke-miterlimit="10" />
    
    <path
     style="fill:none;stroke:#000000;stroke-miterlimit:10"
     id="st0"
     d="m 87.75,77.002 -19,20 c 0,0 -4.295,0.155 -16,0 C 41.045,96.847 0.5,98.959 0.5,50.609 0.5,6.6920005 25.875,0.49800049 66.416,0.50000049 100.039,0.50100049 117.831,28.534 117.831,28.534 l -11.448,15.258 c 0,0 -19.536,-21.483 -39.89,-21.837 -25.971,-0.453 -39.384,3.692 -38.878,26.788 0.438,19.98 15.741,28.096 33.741,28.096 18,0 26.394,0.163 26.394,0.163 z"
     stroke-miterlimit="10" />
    
    <path
     style="fill:none;stroke:#000000;stroke-miterlimit:10"
     id="st0"
     d="m 191.737,21.783 c 28.126,0.29 32.128,6.933 32.127,26.798 -0.001,24.371 -9.601,30.542 -36.964,29.442 -21.405,-0.86 -43.99,-26.899 -43.99,-26.899 0,0 21.609,-29.622 48.827,-29.341 z"
     stroke-miterlimit="10" />
    
    <polygon
     transform="translate(-7.583,-13.498)"
     id="polygon3343"
     points="134.289,48.865 120.196,63.957 102.376,47.136 117.469,32.044 " />
    
    
    <g
     transform="translate(-7.583,-13.498)"
     id="g3345">
    <path
       style="fill:#f7f5f5"
       id="st0"
       d="m 120.897,47.761 c -0.906,-0.72 -1.266,-0.665 -2.244,-0.452 -0.737,0.179 -1.517,0.389 -2.577,0.622 0.014,0.919 -0.083,3.239 -0.38,4.2 l -0.217,0.06 c -0.494,-0.614 -0.861,-1.522 -0.866,-1.821 0.033,-0.311 0.085,-1.399 0.112,-2.146 -2.034,0.328 -3.264,-0.071 -4.128,-0.909 -1.507,-1.464 -1.249,-3.42 -0.233,-4.466 1.078,-1.11 2.3,-0.829 4.087,-0.601 -0.064,-1.018 0.085,-1.828 0.71,-2.472 1.035,-1.065 2.671,-0.971 3.73,0.058 0.933,0.906 1.072,2.353 0.128,3.311 -0.478,0.492 -1.048,0.588 -1.502,0.562 -0.416,-0.023 -0.896,-0.048 -1.643,-0.162 0.067,0.727 0.208,2.271 0.204,3.752 0.713,-0.153 1.3,-0.38 2.09,-0.727 0.748,-0.328 0.706,-0.588 -0.035,-1.492 l 0.361,-0.371 2.762,2.682 -0.359,0.372 z m -9.256,-0.978 c 0.838,0.814 2.127,0.963 3.101,0.781 0.076,-1.176 0.023,-2.66 -0.249,-4.701 -1.427,-0.246 -2.3,-0.004 -2.888,0.602 -1.09,1.121 -0.765,2.541 0.023,3.306 l 0.013,0.012 z m 6.696,-6.668 c -0.574,-0.557 -1.462,-0.488 -2.166,0.237 -0.569,0.587 -0.607,1.382 -0.385,2.604 1.034,0.134 1.79,-0.038 2.372,-0.612 0.63,-0.674 0.765,-1.658 0.191,-2.216 l -0.012,-0.013 z" /><path
       style="fill:#f7f5f5"
       id="st0"
       d="m 127.484,54.158 c -0.906,-0.72 -1.266,-0.664 -2.244,-0.451 -0.737,0.178 -1.517,0.389 -2.577,0.621 0.014,0.92 -0.083,3.24 -0.38,4.201 l -0.217,0.059 c -0.494,-0.613 -0.861,-1.521 -0.866,-1.82 0.033,-0.311 0.085,-1.4 0.112,-2.146 -2.034,0.328 -3.264,-0.07 -4.128,-0.909 -1.507,-1.464 -1.249,-3.419 -0.233,-4.466 1.078,-1.109 2.3,-0.828 4.087,-0.6 -0.064,-1.02 0.085,-1.829 0.71,-2.473 1.035,-1.064 2.671,-0.971 3.73,0.059 0.933,0.906 1.072,2.352 0.128,3.311 -0.478,0.492 -1.048,0.587 -1.502,0.562 -0.416,-0.024 -0.896,-0.049 -1.643,-0.162 0.067,0.727 0.208,2.271 0.204,3.752 0.713,-0.154 1.3,-0.381 2.09,-0.728 0.748,-0.327 0.706,-0.588 -0.035,-1.491 l 0.361,-0.372 2.762,2.683 -0.359,0.37 z m -9.256,-0.977 c 0.838,0.814 2.127,0.964 3.101,0.782 0.076,-1.176 0.023,-2.66 -0.249,-4.702 -1.427,-0.246 -2.3,-0.004 -2.888,0.602 -1.09,1.122 -0.765,2.541 0.023,3.306 l 0.013,0.012 z m 6.696,-6.667 c -0.574,-0.557 -1.462,-0.488 -2.166,0.236 -0.569,0.587 -0.607,1.383 -0.385,2.604 1.034,0.135 1.79,-0.037 2.372,-0.611 0.63,-0.675 0.765,-1.659 0.191,-2.217 l -0.012,-0.012 z" /></g>
</svg>