<?xml version="1.0" encoding="utf-8"?>
<!-- Generator: Adobe Illustrator 19.1.0, SVG Export Plug-In . SVG Version: 6.00 Build 0)  -->
<svg version="1.1" id="Layer_2" xmlns="http://www.w3.org/2000/svg" xmlns:xlink="http://www.w3.org/1999/xlink" x="0px" y="0px" style="enable-background:new 0 0 200 94.937;" xml:space="preserve">
    <!-- property viewBox="0 0 60% 124.7" was removed from above tag -->
    
<style type="text/css">
	.st0{fill:none;stroke:#000000;stroke-miterlimit:10;}
	.st1{fill:#F7F5F5;}
    .st2{fill:#404645;stroke: #000000}
    
    <defs>
       
        <style type="text/css">
            
            
                .st0{
                    stroke-dasharray: 1000;
                    stroke-dashoffset: 1000;
                    animation: dash 3s linear forwards;
<!--                    animation: pulse 20s linear forwards; -->
                }
            

                @keyframes dash {
                    from{
                     stroke-dashoffset: 1000;
                        fill:#333;
                    }
                    to {
                    stroke-dashoffset: 0;
            fill: white;
                    }
           
            
<!--
                @keyframes pulse {
                    0% {
                     fill: black;
                    }
                    100% {
                     fill: white;
                    }
-->
                }
            
        </style>
    </defs>
</style>
    
<path class="st0" d="M76.3,110.5l75-80.3c0,0,14.9-15.4,34-15.6c47.8-0.6,71,4.1,71,45.5c0,47.3-12,50.9-70,50.9
	c-23.9,0-50.6-31.1-50.6-31.1l-27.4,30.6H76.3z"/>
<path class="st0" d="M95.3,90.5l-19,20c0,0-4.3,0.2-16,0c-11.7-0.2-52.3,2-52.3-46.4C8.1,20.2,33.5,14,74,14c33.6,0,51.4,28,51.4,28
	L114,57.3c0,0-19.5-21.5-39.9-21.8c-26-0.5-39.4,3.7-38.9,26.8c0.4,20,15.7,28.1,33.7,28.1S95.3,90.5,95.3,90.5z"/>
<path class="st2" d="M199.3,35.3c28.1,0.3,32.1,6.9,32.1,26.8c0,24.4-9.6,30.5-37,29.4c-21.4-0.9-44-26.9-44-26.9
	S172.1,35,199.3,35.3z"/>
<polygon points="120.2,64 102.4,47.1 117.5,32 134.3,48.9 "/>
<g>
	<path class="st1" d="M120.9,47.8c-0.9-0.7-1.3-0.7-2.2-0.5c-0.7,0.2-1.5,0.4-2.6,0.6c0,0.9-0.1,3.2-0.4,4.2l-0.2,0.1
		c-0.5-0.6-0.9-1.5-0.9-1.8c0-0.3,0.1-1.4,0.1-2.1c-2,0.3-3.3-0.1-4.1-0.9c-1.5-1.5-1.2-3.4-0.2-4.5c1.1-1.1,2.3-0.8,4.1-0.6
		c-0.1-1,0.1-1.8,0.7-2.5c1-1.1,2.7-1,3.7,0.1c0.9,0.9,1.1,2.4,0.1,3.3c-0.5,0.5-1,0.6-1.5,0.6c-0.4,0-0.9,0-1.6-0.2
		c0.1,0.7,0.2,2.3,0.2,3.8c0.7-0.2,1.3-0.4,2.1-0.7c0.7-0.3,0.7-0.6,0-1.5l0.4-0.4l2.8,2.7L120.9,47.8z M111.6,46.8
		c0.8,0.8,2.1,1,3.1,0.8c0.1-1.2,0-2.7-0.2-4.7c-1.4-0.2-2.3,0-2.9,0.6C110.5,44.6,110.8,46,111.6,46.8L111.6,46.8z M118.3,40.1
		c-0.6-0.6-1.5-0.5-2.2,0.2c-0.6,0.6-0.6,1.4-0.4,2.6c1,0.1,1.8,0,2.4-0.6C118.8,41.7,118.9,40.7,118.3,40.1L118.3,40.1z"/>
	<path class="st1" d="M127.5,54.2c-0.9-0.7-1.3-0.7-2.2-0.5c-0.7,0.2-1.5,0.4-2.6,0.6c0,0.9-0.1,3.2-0.4,4.2l-0.2,0.1
		c-0.5-0.6-0.9-1.5-0.9-1.8c0-0.3,0.1-1.4,0.1-2.1c-2,0.3-3.3-0.1-4.1-0.9c-1.5-1.5-1.2-3.4-0.2-4.5c1.1-1.1,2.3-0.8,4.1-0.6
		c-0.1-1,0.1-1.8,0.7-2.5c1-1.1,2.7-1,3.7,0.1c0.9,0.9,1.1,2.4,0.1,3.3c-0.5,0.5-1,0.6-1.5,0.6c-0.4,0-0.9,0-1.6-0.2
		c0.1,0.7,0.2,2.3,0.2,3.8c0.7-0.2,1.3-0.4,2.1-0.7c0.7-0.3,0.7-0.6,0-1.5l0.4-0.4l2.8,2.7L127.5,54.2z M118.2,53.2
		c0.8,0.8,2.1,1,3.1,0.8c0.1-1.2,0-2.7-0.2-4.7c-1.4-0.2-2.3,0-2.9,0.6C117.1,51,117.4,52.4,118.2,53.2L118.2,53.2z M124.9,46.5
		c-0.6-0.6-1.5-0.5-2.2,0.2c-0.6,0.6-0.6,1.4-0.4,2.6c1,0.1,1.8,0,2.4-0.6C125.4,48.1,125.5,47.1,124.9,46.5L124.9,46.5z"/>
</g>
</svg>
