<svg version="1.1" id="Layer_2" xmlns="http://www.w3.org/2000/svg" xmlns:xlink="http://www.w3.org/1999/xlink" x="0px" y="0px"
	 width="262.667px" height="124.667px" viewBox="0 0 262.667 124.667" enable-background="new 0 0 262.667 124.667"
	 xml:space="preserve">
    <defs>
        <style type="text/css">
            
                #.st0{
<!--
                    fill: transparent;
                    stroke: #000;
                    stroke-width: 3px;
-->

                    
                    stroke-dasharray: 3000 3000;
                    stroke-dashoffset: 0;
                    transition: stroke-dashoffset 2s linear;
                    animation: dash 2s linear forwards;
                }

                @-webkit-keyframes dash {
                from{
                 stroke-dashoffset: 1000;
                }
                to {
                stroke-dashoffset: 0;
                }
            }
            
        </style>
    </defs>
<path id="st0" d="M76.333,111l75-80.5c0,0,14.862-15.515,34.025-15.761c47.849-0.614,70.975,4.012,70.975,45.448
	c0,47.261-11.987,50.844-70,50.906c-23.906,0.025-50.61-30.902-50.61-30.902L108.332,111H76.333z"/>
<path id="st1" d="M95.333,90.5l-19,20c0,0-4.295,0.155-16,0s-52.25,1.957-52.25-46.393c0-43.917,25.375-50.111,65.916-50.109
	c33.623,0.001,51.415,28.034,51.415,28.034L113.966,57.29c0,0-19.536-21.483-39.89-21.837C48.105,35,34.692,39.145,35.198,62.241
	c0.438,19.98,15.741,28.096,33.741,28.096S95.333,90.5,95.333,90.5z"/>
<path id="st2" d="M199.32,35.281c28.126,0.29,32.128,6.933,32.127,26.798c-0.001,24.371-9.601,30.542-36.964,29.442
	c-21.405-0.86-43.99-26.899-43.99-26.899S172.102,35,199.32,35.281z"/>
<polygon points="120.196,63.957 102.376,47.136 117.469,32.044 134.289,48.865 "/>
<g>
	<path fill="#F7F5F5" d="M120.897,47.761c-0.906-0.72-1.266-0.665-2.244-0.452c-0.737,0.179-1.517,0.389-2.577,0.622
		c0.014,0.919-0.083,3.239-0.38,4.2l-0.217,0.06c-0.494-0.614-0.861-1.522-0.866-1.821c0.033-0.311,0.085-1.399,0.112-2.146
		c-2.034,0.328-3.264-0.071-4.128-0.909c-1.507-1.464-1.249-3.42-0.233-4.466c1.078-1.11,2.3-0.829,4.087-0.601
		c-0.064-1.018,0.085-1.828,0.71-2.472c1.035-1.065,2.671-0.971,3.73,0.058c0.933,0.906,1.072,2.353,0.128,3.311
		c-0.478,0.492-1.048,0.588-1.502,0.562c-0.416-0.023-0.896-0.048-1.643-0.162c0.067,0.727,0.208,2.271,0.204,3.752
		c0.713-0.153,1.3-0.38,2.09-0.727c0.748-0.328,0.706-0.588-0.035-1.492l0.361-0.371l2.762,2.682L120.897,47.761z M111.641,46.783
		c0.838,0.814,2.127,0.963,3.101,0.781c0.076-1.176,0.023-2.66-0.249-4.701c-1.427-0.246-2.3-0.004-2.888,0.602
		c-1.09,1.121-0.765,2.541,0.023,3.306L111.641,46.783z M118.337,40.115c-0.574-0.557-1.462-0.488-2.166,0.237
		c-0.569,0.587-0.607,1.382-0.385,2.604c1.034,0.134,1.79-0.038,2.372-0.612c0.63-0.674,0.765-1.658,0.191-2.216L118.337,40.115z"/>
	<path fill="#F7F5F5" d="M127.484,54.158c-0.906-0.72-1.266-0.664-2.244-0.451c-0.737,0.178-1.517,0.389-2.577,0.621
		c0.014,0.92-0.083,3.24-0.38,4.201l-0.217,0.059c-0.494-0.613-0.861-1.521-0.866-1.82c0.033-0.311,0.085-1.4,0.112-2.146
		c-2.034,0.328-3.264-0.07-4.128-0.909c-1.507-1.464-1.249-3.419-0.233-4.466c1.078-1.109,2.3-0.828,4.087-0.6
		c-0.064-1.02,0.085-1.829,0.71-2.473c1.035-1.064,2.671-0.971,3.73,0.059c0.933,0.906,1.072,2.352,0.128,3.311
		c-0.478,0.492-1.048,0.587-1.502,0.562c-0.416-0.024-0.896-0.049-1.643-0.162c0.067,0.727,0.208,2.271,0.204,3.752
		c0.713-0.154,1.3-0.381,2.09-0.728c0.748-0.327,0.706-0.588-0.035-1.491l0.361-0.372l2.762,2.683L127.484,54.158z M118.228,53.181
		c0.838,0.814,2.127,0.964,3.101,0.782c0.076-1.176,0.023-2.66-0.249-4.702c-1.427-0.246-2.3-0.004-2.888,0.602
		c-1.09,1.122-0.765,2.541,0.023,3.306L118.228,53.181z M124.924,46.514c-0.574-0.557-1.462-0.488-2.166,0.236
		c-0.569,0.587-0.607,1.383-0.385,2.604c1.034,0.135,1.79-0.037,2.372-0.611c0.63-0.675,0.765-1.659,0.191-2.217L124.924,46.514z"/>
</g>
</svg>
