<svg xmlns="http://www.w3.org/2000/svg" version="1.1" x="0" y="0" width="262.7" height="124.7" viewBox="0 0 262.7 124.7" enable-background="new 0 0 262.667 124.667" xml:space="preserve">
    
    <style type="text/css">
        #path{
        stroke-dasharray: 3000 3000;
        stroke-dashoffset: 3000;
        
        transition: stroke-dashoffset 2s linear;
        }
        
        svg:hover #path{
        stroke-dashoffset: 0;
        }
    </style>

<path fill="#fff" stroke="#000001" stroke-miterlimit="10" d="M76.3 110.5l75-80.2c0 0 14.9-15.4 34-15.6 47.8-0.6 71 4.1 71 45.5 0 47.3-12 50.9-70 50.9 -23.9 0-50.6-31.1-50.6-31.1l-27.4 30.6H76.3zM95.3 90.5l-19 20c0 0-4.3 0.2-16 0s-52.2 2-52.2-46.4c0-43.9 25.4-50.1 65.9-50.1 33.6 0 51.4 28 51.4 28L114 57.3c0 0-19.5-21.5-39.9-21.8C48.1 35 34.7 39.1 35.2 62.2c0.4 20 15.7 28.1 33.7 28.1S95.3 90.5 95.3 90.5zM199.3 35.3c28.1 0.3 32.1 6.9 32.1 26.8 0 24.4-9.6 30.5-37 29.4 -21.4-0.9-44-26.9-44-26.9S172.1 35 199.3 35.3z"/><polygon points="120.2 64 102.4 47.1 117.5 32 134.3 48.9 "/><path fill="#F7F5F5" d="M120.9 47.8c-0.9-0.7-1.3-0.7-2.2-0.5 -0.7 0.2-1.5 0.4-2.6 0.6 0 0.9-0.1 3.2-0.4 4.2l-0.2 0.1c-0.5-0.6-0.9-1.5-0.9-1.8 0-0.3 0.1-1.4 0.1-2.1 -2 0.3-3.3-0.1-4.1-0.9 -1.5-1.5-1.2-3.4-0.2-4.5 1.1-1.1 2.3-0.8 4.1-0.6 -0.1-1 0.1-1.8 0.7-2.5 1-1.1 2.7-1 3.7 0.1 0.9 0.9 1.1 2.4 0.1 3.3 -0.5 0.5-1 0.6-1.5 0.6 -0.4 0-0.9 0-1.6-0.2 0.1 0.7 0.2 2.3 0.2 3.8 0.7-0.2 1.3-0.4 2.1-0.7 0.7-0.3 0.7-0.6 0-1.5l0.4-0.4 2.8 2.7L120.9 47.8zM111.6 46.8c0.8 0.8 2.1 1 3.1 0.8 0.1-1.2 0-2.7-0.2-4.7 -1.4-0.2-2.3 0-2.9 0.6 -1.1 1.1-0.8 2.5 0 3.3L111.6 46.8zM118.3 40.1c-0.6-0.6-1.5-0.5-2.2 0.2 -0.6 0.6-0.6 1.4-0.4 2.6 1 0.1 1.8 0 2.4-0.6 0.6-0.7 0.8-1.7 0.2-2.2L118.3 40.1zM127.5 54.2c-0.9-0.7-1.3-0.7-2.2-0.5 -0.7 0.2-1.5 0.4-2.6 0.6 0 0.9-0.1 3.2-0.4 4.2l-0.2 0.1c-0.5-0.6-0.9-1.5-0.9-1.8 0-0.3 0.1-1.4 0.1-2.1 -2 0.3-3.3-0.1-4.1-0.9 -1.5-1.5-1.2-3.4-0.2-4.5 1.1-1.1 2.3-0.8 4.1-0.6 -0.1-1 0.1-1.8 0.7-2.5 1-1.1 2.7-1 3.7 0.1 0.9 0.9 1.1 2.4 0.1 3.3 -0.5 0.5-1 0.6-1.5 0.6 -0.4 0-0.9 0-1.6-0.2 0.1 0.7 0.2 2.3 0.2 3.8 0.7-0.2 1.3-0.4 2.1-0.7 0.7-0.3 0.7-0.6 0-1.5l0.4-0.4 2.8 2.7L127.5 54.2zM118.2 53.2c0.8 0.8 2.1 1 3.1 0.8 0.1-1.2 0-2.7-0.2-4.7 -1.4-0.2-2.3 0-2.9 0.6 -1.1 1.1-0.8 2.5 0 3.3L118.2 53.2zM124.9 46.5c-0.6-0.6-1.5-0.5-2.2 0.2 -0.6 0.6-0.6 1.4-0.4 2.6 1 0.1 1.8 0 2.4-0.6 0.6-0.7 0.8-1.7 0.2-2.2L124.9 46.5z"/></svg>